<svg width="153" height="178" viewBox="0 0 153 178" fill="none" xmlns="http://www.w3.org/2000/svg">
<g filter="url(#filter0_i)">
<path d="M77.9372 39.8898L105.536 43.7755C107.451 44.0451 108.342 46.4142 107.107 47.9537L87.9805 71.8013C86.7457 73.3408 84.3589 72.8367 83.771 70.9123L75.299 43.179C74.7544 41.3961 76.1629 39.64 77.9372 39.8898Z" fill="url(#paint0_radial)" stroke="white" stroke-width="5"/>
<path d="M137.577 34.7959C141.51 45.6033 134.974 58.3948 122.219 63.0375C109.463 67.6802 96.234 62.0824 92.3005 51.275C88.3669 40.4677 94.9026 27.6762 107.658 23.0334C120.414 18.3907 133.643 23.9885 137.577 34.7959Z" fill="url(#paint1_radial)" stroke="white" stroke-width="5"/>
</g>
<ellipse cx="124.481" cy="38.1559" rx="2.86364" ry="3.08333" transform="rotate(-20 124.481 38.1559)" fill="white"/>
<path d="M108.091 50.1583C107.981 49.8573 107.81 49.6494 107.577 49.5347C107.346 49.4149 107.003 49.3526 106.548 49.3478C106.094 49.3429 105.694 49.3198 105.351 49.2785C105.006 49.2336 104.695 49.1537 104.416 49.039C104.139 48.9193 103.895 48.7505 103.683 48.5326C103.474 48.3134 103.304 48.024 103.173 47.6642C102.948 47.0439 102.961 46.4634 103.213 45.9226C103.465 45.3819 103.908 44.9589 104.541 44.6537L104.112 43.4754L104.993 43.1548L105.428 44.3496C106.111 44.2049 106.718 44.2915 107.249 44.6094C107.779 44.9236 108.175 45.4386 108.435 46.1544L106.844 46.7335C106.684 46.2931 106.472 45.9979 106.21 45.8482C105.95 45.6934 105.668 45.6714 105.363 45.7823C105.062 45.8919 104.86 46.063 104.758 46.2956C104.654 46.5246 104.657 46.7896 104.767 47.0906C104.868 47.3696 105.03 47.5641 105.253 47.6741C105.476 47.7842 105.838 47.8478 106.339 47.865C106.844 47.8809 107.266 47.9163 107.606 47.9713C107.945 48.0226 108.248 48.1119 108.515 48.2394C108.78 48.3631 109.01 48.5329 109.205 48.7488C109.399 48.961 109.556 49.2341 109.678 49.5681C109.905 50.1921 109.895 50.7695 109.647 51.3002C109.4 51.8309 108.947 52.2554 108.29 52.5736L108.689 53.6693L107.813 53.988L107.417 52.8978C106.635 53.0909 105.954 53.0372 105.375 52.7367C104.798 52.4311 104.373 51.9021 104.099 51.1496L105.69 50.5705C105.849 51.0073 106.074 51.3057 106.365 51.4659C106.659 51.621 107 51.6277 107.389 51.4861C107.712 51.3685 107.937 51.1912 108.062 50.9542C108.187 50.7136 108.196 50.4483 108.091 50.1583Z" fill="white"/>
<g filter="url(#filter1_d)">
<path d="M49.5813 78.0447C45.7403 78.1414 41.1503 78.335 39.3414 78.4838C39.0785 78.4987 38.4011 78.5583 37.8274 78.5955C31.1814 79.1091 26.6392 79.98 25.8025 80.9029C25.5634 81.1709 25.5555 81.2007 25.7069 81.5207C25.8423 81.8185 26.0097 81.9599 26.5117 82.1906C28.3206 83.0317 32.6397 83.6272 40.1383 84.0589C51.5655 84.7288 63.2716 84.513 76.5555 83.3965C79.6394 83.1434 82.7712 82.3693 83.4246 81.7143C84.0063 81.1188 83.4246 80.6275 81.5519 80.1288C78.1174 79.2058 71.5671 78.5136 62.8094 78.1489C60.9925 78.067 51.438 78 49.5813 78.0447ZM63.5266 78.3647C73.3122 78.8188 80.3566 79.6897 82.7712 80.7392C83.7991 81.1932 83.6397 81.5803 82.1815 82.1311C81.1296 82.533 78.7549 82.9945 76.8344 83.1732C67.9652 83.9919 56.6735 84.3939 48.2266 84.1855C40.8794 84.0068 34.3211 83.5677 30.775 83.0169C28.217 82.6224 26.6711 82.1906 26.1452 81.7217C25.7786 81.3942 25.7547 81.223 26.0575 80.9625C27.4759 79.712 35.5005 78.6923 46.9516 78.3052C49.4538 78.2159 61.2714 78.2605 63.5266 78.3647Z" fill="url(#paint2_linear)"/>
<path d="M25.6192 82.5926C25.5475 82.6149 25.5555 82.7042 25.675 82.9052C25.946 83.4113 26.1611 84.3343 26.2089 85.1903C26.2727 86.3291 26.0974 86.9841 25.6113 87.468C25.3642 87.7136 25.428 87.8178 25.7228 87.6466C26.2647 87.3117 26.5516 86.1207 26.4002 84.833C26.2727 83.7091 25.8503 82.5181 25.6192 82.5926Z" fill="url(#paint3_linear)"/>
<path d="M82.9784 82.8233C82.4445 83.8058 82.2771 85.5402 82.6437 86.3143C82.819 86.679 83.3449 87.2298 83.5282 87.2298C83.6716 87.2298 83.6079 87.1181 83.2971 86.8427C82.8588 86.4631 82.6516 85.9049 82.6516 85.1233C82.6516 84.4534 82.8827 83.4486 83.1457 82.9573C83.2493 82.7712 83.2732 82.6447 83.2254 82.6C83.1696 82.5479 83.0899 82.6224 82.9784 82.8233Z" fill="url(#paint4_linear)"/>
<path d="M83.6397 86.1207C83.5839 86.2175 83.56 86.2026 84.086 86.411C84.8271 86.6939 86.3411 87.4233 87.1221 87.8699C93.7839 91.6288 99.5135 98.2832 102.773 106.024C103.649 108.123 104.446 110.572 104.884 112.574C105.068 113.401 105.442 115.485 105.442 115.663C105.442 115.723 105.331 115.574 105.195 115.328C105.068 115.083 104.876 114.807 104.789 114.718C104.606 114.532 104.606 114.532 104.868 114.406C105.116 114.279 105.084 114.078 104.773 113.817C103.578 112.842 97.9277 112.314 85.4805 112.016C78.8664 111.86 68.1724 111.785 49.8203 111.771C30.3606 111.756 28.3366 111.778 21.1727 112.061C11.9608 112.418 6.54204 113.058 5.29892 113.929L5.03595 114.108V113.937C5.03595 113.676 5.69736 111.138 6.03204 110.118C8.07204 103.858 11.8014 98.0376 16.8935 93.177C19.4594 90.7133 22.3999 88.5473 25.1013 87.1256C25.8424 86.7311 26.0655 86.5599 25.8264 86.5599C25.6989 86.5599 24.4239 87.2372 23.5235 87.788C18.9494 90.557 14.6303 94.6285 11.2994 99.3104C7.58595 104.536 5.23517 110.304 4.43829 116.147C4.36657 116.676 4.27892 117.264 4.23907 117.45C3.86454 119.311 3.96814 122.839 4.47814 126.047C5.87267 134.808 10.4706 143.048 17.5549 149.494C25.5475 156.758 35.9946 161.343 47.7086 162.735C50.0913 163.018 51.6771 163.1 54.8008 163.107C57.9325 163.107 58.8728 163.063 61.6141 162.78C66.8336 162.229 72.0771 160.941 77.0894 158.969L78.4521 158.433L79.3764 159.326C80.9144 160.8 81.8467 162.028 82.1336 162.944C82.3249 163.562 82.2372 163.852 81.7352 164.306C78.5078 167.253 70.6985 169.181 59.9008 169.702C57.9166 169.799 52.9202 169.799 50.8164 169.702C40.226 169.218 31.4922 167.335 27.0217 164.574C26.5516 164.284 26.0814 163.949 25.9619 163.822C25.6511 163.472 25.675 163.033 26.0575 162.289C26.5038 161.44 27.213 160.599 28.6792 159.2C29.3964 158.522 29.9781 157.942 29.9781 157.912C29.9781 157.726 29.6036 158.016 28.5517 159.021C27.1174 160.398 26.3524 161.306 25.9061 162.155C25.5156 162.877 25.428 163.375 25.6272 163.74C25.7467 163.956 26.4241 164.462 27.2369 164.953C27.7469 165.259 29.5239 166.077 30.4961 166.45C34.4964 167.983 40.0985 169.077 46.9516 169.665C51.6292 170.06 57.8688 170.089 62.6899 169.732C72.0532 169.047 79.0577 167.119 81.8467 164.462C82.3408 163.993 82.3647 163.963 82.3966 163.547C82.4763 162.527 81.4882 161.046 79.4083 159.058L78.6672 158.344L80.1255 157.659C88.8592 153.543 95.8558 147.484 100.35 140.16C101.617 138.075 102.844 135.545 103.609 133.386C105.339 128.54 105.96 125.169 105.96 120.576C105.952 117.882 105.825 116.415 105.363 113.877C103.928 106.002 99.7525 98.313 93.8875 92.7081C91.0427 89.9913 88.3492 88.1155 85.2494 86.7013C83.9425 86.1058 83.7114 86.0165 83.6397 86.1207ZM4.99611 115.373C4.68532 115.909 4.67736 115.894 4.80486 115.105L4.89251 114.547L5.08376 114.718L5.27501 114.897L4.99611 115.373ZM105.737 122.415C105.721 122.69 105.713 122.482 105.713 121.953C105.713 121.417 105.721 121.194 105.737 121.447C105.753 121.7 105.753 122.139 105.737 122.415ZM105.657 123.457C105.633 123.531 105.618 123.472 105.618 123.33C105.618 123.189 105.633 123.129 105.657 123.196C105.673 123.271 105.673 123.39 105.657 123.457Z" fill="url(#paint5_linear)"/>
<path d="M31.5082 87.5424C31.5878 87.7657 38.5525 88.5398 43.0071 88.8227C48.2664 89.1576 55.7092 89.2246 62.0125 88.9864C68.1723 88.7482 76.1092 88.3835 76.165 88.324C76.1969 88.2942 76.2048 88.2495 76.173 88.2272C76.1491 88.1974 73.7664 88.2867 70.8817 88.4133C60.2674 88.8822 59.853 88.8971 53.8047 88.8971C48.0752 88.9045 46.322 88.8599 42.6086 88.5994C39.2936 88.3761 35.8033 88.0188 33.0142 87.6317C31.5002 87.4233 31.4683 87.4233 31.5082 87.5424Z" fill="url(#paint6_linear)"/>
</g>
<defs>
<filter id="filter0_i" x="72.7323" y="11.5896" width="75.3287" height="67.6724" filterUnits="userSpaceOnUse" color-interpolation-filters="sRGB">
<feFlood flood-opacity="0" result="BackgroundImageFix"/>
<feBlend mode="normal" in="SourceGraphic" in2="BackgroundImageFix" result="shape"/>
<feColorMatrix in="SourceAlpha" type="matrix" values="0 0 0 0 0 0 0 0 0 0 0 0 0 0 0 0 0 0 127 0" result="hardAlpha"/>
<feOffset dy="4"/>
<feGaussianBlur stdDeviation="2"/>
<feComposite in2="hardAlpha" operator="arithmetic" k2="-1" k3="1"/>
<feColorMatrix type="matrix" values="0 0 0 0 0 0 0 0 0 0 0 0 0 0 0 0 0 0 0.25 0"/>
<feBlend mode="normal" in2="shape" result="effect1_innerShadow"/>
</filter>
<filter id="filter1_d" x="0.0145264" y="78.0304" width="109.946" height="99.9512" filterUnits="userSpaceOnUse" color-interpolation-filters="sRGB">
<feFlood flood-opacity="0" result="BackgroundImageFix"/>
<feColorMatrix in="SourceAlpha" type="matrix" values="0 0 0 0 0 0 0 0 0 0 0 0 0 0 0 0 0 0 127 0"/>
<feOffset dy="4"/>
<feGaussianBlur stdDeviation="2"/>
<feColorMatrix type="matrix" values="0 0 0 0 0 0 0 0 0 0 0 0 0 0 0 0 0 0 0.25 0"/>
<feBlend mode="normal" in2="BackgroundImageFix" result="effect1_dropShadow"/>
<feBlend mode="normal" in="SourceGraphic" in2="effect1_dropShadow" result="shape"/>
</filter>
<radialGradient id="paint0_radial" cx="0" cy="0" r="1" gradientUnits="userSpaceOnUse" gradientTransform="translate(89.8268 53.1128) rotate(41.237) scale(25.5247 28.1488)">
<stop stop-color="#E94057"/>
<stop offset="1" stop-color="#F27121"/>
</radialGradient>
<radialGradient id="paint1_radial" cx="0" cy="0" r="1" gradientUnits="userSpaceOnUse" gradientTransform="translate(114.939 43.0355) rotate(70) scale(23.7857 26.5909)">
<stop stop-color="#E94057"/>
<stop offset="1" stop-color="#F27121"/>
</radialGradient>
<linearGradient id="paint2_linear" x1="54.6232" y1="84.4381" x2="54.6232" y2="78.0304" gradientUnits="userSpaceOnUse">
<stop stop-color="#E94057"/>
<stop offset="0.270833" stop-color="#F27121"/>
<stop offset="1" stop-color="#E94057"/>
</linearGradient>
<linearGradient id="paint3_linear" x1="25.9495" y1="87.731" x2="25.9495" y2="82.5892" gradientUnits="userSpaceOnUse">
<stop stop-color="#E94057"/>
<stop offset="0.270833" stop-color="#F27121"/>
<stop offset="1" stop-color="#E94057"/>
</linearGradient>
<linearGradient id="paint4_linear" x1="83.0243" y1="87.2298" x2="83.0243" y2="82.5839" gradientUnits="userSpaceOnUse">
<stop stop-color="#E94057"/>
<stop offset="0.270833" stop-color="#F27121"/>
<stop offset="1" stop-color="#E94057"/>
</linearGradient>
<linearGradient id="paint5_linear" x1="54.9874" y1="169.982" x2="54.9874" y2="86.0833" gradientUnits="userSpaceOnUse">
<stop stop-color="#E94057"/>
<stop offset="0.270833" stop-color="#F27121"/>
<stop offset="1" stop-color="#E94057"/>
</linearGradient>
<linearGradient id="paint6_linear" x1="53.8463" y1="89.1281" x2="53.8463" y2="87.4619" gradientUnits="userSpaceOnUse">
<stop stop-color="#E94057"/>
<stop offset="0.270833" stop-color="#F27121"/>
<stop offset="1" stop-color="#E94057"/>
</linearGradient>
</defs>
</svg>
