<svg width="26" height="39" viewBox="0 0 36 49" fill="none" xmlns="http://www.w3.org/2000/svg">
<path d="M0 8.03906V5.35938C0 4.08652 0.859821 3.0625 1.92857 3.0625H10.9286L11.6839 1.27285C12.0054 0.488086 12.6723 0 13.4036 0H22.5884C23.3196 0 23.9866 0.488086 24.3161 1.27285L25.0714 3.0625H34.0714C35.1402 3.0625 36 4.08652 36 5.35938V8.03906C36 8.6707 35.5661 9.1875 35.0357 9.1875H0.964286C0.433929 9.1875 0 8.6707 0 8.03906ZM33.3643 13.4654L31.725 44.6934C31.5964 47.1146 29.9089 49 27.8759 49H8.12411C6.09107 49 4.40357 47.1146 4.275 44.6934L2.63571 13.4654C2.60357 12.8051 3.04554 12.25 3.6 12.25H32.408C32.9545 12.25 33.3964 12.8051 33.3643 13.4654Z" fill="#E94057"/>
</svg>