<svg width="24" height="24" viewBox="0 0 512 512" fill="none" xmlns="http://www.w3.org/2000/svg">
<path d="M497.876 142.025L451.776 188.125C447.076 192.825 439.476 192.825 434.776 188.125L323.776 77.125C319.076 72.425 319.076 64.825 323.776 60.125L369.876 14.025C388.576 -4.675 418.976 -4.675 437.776 14.025L497.876 74.125C516.676 92.825 516.676 123.225 497.876 142.025ZM284.176 99.725L21.5763 362.325L0.376305 483.825C-2.5237 500.225 11.7763 514.425 28.1763 511.625L149.676 490.325L412.276 227.725C416.976 223.025 416.976 215.425 412.276 210.725L301.276 99.725C296.476 95.025 288.876 95.025 284.176 99.725V99.725ZM124.076 339.825C118.576 334.325 118.576 325.525 124.076 320.025L278.076 166.025C283.576 160.525 292.376 160.525 297.876 166.025C303.376 171.525 303.376 180.325 297.876 185.825L143.876 339.825C138.376 345.325 129.576 345.325 124.076 339.825V339.825ZM87.9763 423.925H135.976V460.225L71.4763 471.525L40.3763 440.425L51.6763 375.925H87.9763V423.925Z" fill="#E94057"/>
</svg>